<svg width="25" height="25" viewBox="0 0 25 25" fill="none" xmlns="http://www.w3.org/2000/svg">
<g clipPath="url(#clip0)">
<path fill-rule="evenodd" clip-rule="evenodd" d="M12.5 23.4625C15.1936 23.4625 17.7769 22.3925 19.6816 20.4878C21.5862 18.5831 22.6562 15.9999 22.6562 13.3062C22.6562 10.6126 21.5862 8.02936 19.6816 6.1247C17.7769 4.22003 15.1936 3.15 12.5 3.15C9.80639 3.15 7.22311 4.22003 5.31845 6.1247C3.41378 8.02936 2.34375 10.6126 2.34375 13.3062C2.34375 15.9999 3.41378 18.5831 5.31845 20.4878C7.22311 22.3925 9.80639 23.4625 12.5 23.4625ZM12.5 25.025C15.608 25.025 18.5887 23.7903 20.7864 21.5927C22.9841 19.395 24.2188 16.4143 24.2188 13.3062C24.2188 10.1982 22.9841 7.21753 20.7864 5.01984C18.5887 2.82215 15.608 1.5875 12.5 1.5875C9.39199 1.5875 6.41128 2.82215 4.21359 5.01984C2.0159 7.21753 0.78125 10.1982 0.78125 13.3062C0.78125 16.4143 2.0159 19.395 4.21359 21.5927C6.41128 23.7903 9.39199 25.025 12.5 25.025Z" fill="#C4C4C4"/>
<path d="M9.375 1.5625C9.375 1.1481 9.53962 0.750671 9.83265 0.457646C10.1257 0.16462 10.5231 0 10.9375 0L14.0625 0C14.4769 0 14.8743 0.16462 15.1674 0.457646C15.4604 0.750671 15.625 1.1481 15.625 1.5625C15.625 1.9769 15.4604 2.37433 15.1674 2.66735C14.8743 2.96038 14.4769 3.125 14.0625 3.125H10.9375C10.5231 3.125 10.1257 2.96038 9.83265 2.66735C9.53962 2.37433 9.375 1.9769 9.375 1.5625ZM10.8438 11.625L18.5781 7.20312L14.1563 14.9375L6.42188 19.3594L10.8438 11.625Z" fill="#C4C4C4"/>
</g>
<defs>
<clipPath id="clip0">
<rect width="25" height="25" fill="white"/>
</clipPath>
</defs>
</svg>
