<svg width="25" height="25" viewBox="0 0 25 25" fill="none" xmlns="http://www.w3.org/2000/svg">
<path d="M6.25002 13.5417H2.08335C1.80709 13.5417 1.54213 13.6514 1.34678 13.8468C1.15143 14.0421 1.04169 14.3071 1.04169 14.5833V22.9167C1.04169 23.1929 1.15143 23.4579 1.34678 23.6532C1.54213 23.8486 1.80709 23.9583 2.08335 23.9583H6.25002C6.52629 23.9583 6.79124 23.8486 6.98659 23.6532C7.18194 23.4579 7.29169 23.1929 7.29169 22.9167V14.5833C7.29169 14.3071 7.18194 14.0421 6.98659 13.8468C6.79124 13.6514 6.52629 13.5417 6.25002 13.5417ZM5.20835 21.875H3.12502V15.625H5.20835V21.875ZM22.9167 9.37501H18.75C18.4738 9.37501 18.2088 9.48475 18.0134 9.6801C17.8181 9.87545 17.7084 10.1404 17.7084 10.4167V22.9167C17.7084 23.1929 17.8181 23.4579 18.0134 23.6532C18.2088 23.8486 18.4738 23.9583 18.75 23.9583H22.9167C23.193 23.9583 23.4579 23.8486 23.6533 23.6532C23.8486 23.4579 23.9584 23.1929 23.9584 22.9167V10.4167C23.9584 10.1404 23.8486 9.87545 23.6533 9.6801C23.4579 9.48475 23.193 9.37501 22.9167 9.37501ZM21.875 21.875H19.7917V11.4583H21.875V21.875ZM14.5834 1.04167H10.4167C10.1404 1.04167 9.87547 1.15142 9.68012 1.34677C9.48477 1.54212 9.37502 1.80707 9.37502 2.08334V22.9167C9.37502 23.1929 9.48477 23.4579 9.68012 23.6532C9.87547 23.8486 10.1404 23.9583 10.4167 23.9583H14.5834C14.8596 23.9583 15.1246 23.8486 15.3199 23.6532C15.5153 23.4579 15.625 23.1929 15.625 22.9167V2.08334C15.625 1.80707 15.5153 1.54212 15.3199 1.34677C15.1246 1.15142 14.8596 1.04167 14.5834 1.04167ZM13.5417 21.875H11.4584V3.12501H13.5417V21.875Z" fill="#C4C4C4"/>
</svg>
