<svg width="25" height="25" viewBox="0 0 25 25" fill="none" xmlns="http://www.w3.org/2000/svg">
<path d="M12.5 5.79271L5.20833 11.626V19.7917H10.4167V15.625H14.5833V19.7917H19.7917V12.1271C19.7917 11.9709 19.7566 11.8166 19.689 11.6758C19.6214 11.535 19.523 11.4112 19.401 11.3135L12.5 5.79271ZM12.5 3.125L20.7021 9.6875C21.0678 9.98008 21.3631 10.3511 21.5662 10.7732C21.7692 11.1953 21.8747 11.6577 21.875 12.126V19.7917C21.875 20.3442 21.6555 20.8741 21.2648 21.2648C20.8741 21.6555 20.3442 21.875 19.7917 21.875H5.20833C4.6558 21.875 4.12589 21.6555 3.73519 21.2648C3.34449 20.8741 3.125 20.3442 3.125 19.7917V11.626C3.12504 11.3138 3.19527 11.0055 3.3305 10.7241C3.46573 10.4426 3.66249 10.1952 3.90625 10L12.5 3.125Z" fill="#EA4C89"/>
</svg>
