<svg width="25" height="25" viewBox="0 0 25 25" fill="none" xmlns="http://www.w3.org/2000/svg">
<path d="M20.8828 17.1597C19.6289 15.625 18.7436 14.8438 18.7436 10.6128C18.7436 6.73828 16.7651 5.35791 15.1367 4.6875C14.9204 4.59863 14.7168 4.39453 14.6509 4.17236C14.3652 3.2002 13.5644 2.34375 12.5 2.34375C11.4355 2.34375 10.6343 3.20068 10.3516 4.17334C10.2856 4.39795 10.082 4.59863 9.86572 4.6875C8.23535 5.35889 6.25879 6.73438 6.25879 10.6128C6.25634 14.8438 5.37109 15.625 4.11718 17.1597C3.59765 17.7954 4.05273 18.75 4.96142 18.75H20.0435C20.9473 18.75 21.3994 17.7925 20.8828 17.1597Z" stroke="#C4C4C4" stroke-width="1.75" stroke-linecap="round" stroke-linejoin="round"/>
<path d="M15.625 18.75V19.5312C15.625 20.3601 15.2958 21.1549 14.7097 21.741C14.1237 22.327 13.3288 22.6562 12.5 22.6562C11.6712 22.6562 10.8763 22.327 10.2903 21.741C9.70424 21.1549 9.375 20.3601 9.375 19.5312V18.75" stroke="#C4C4C4" stroke-width="1.75" stroke-linecap="round" stroke-linejoin="round"/>
</svg>
